<?xml version="1.0" encoding="UTF-8" standalone="no"?>
<svg
   xmlns:dc="http://purl.org/dc/elements/1.1/"
   xmlns:cc="http://creativecommons.org/ns#"
   xmlns:rdf="http://www.w3.org/1999/02/22-rdf-syntax-ns#"
   xmlns:svg="http://www.w3.org/2000/svg"
   xmlns="http://www.w3.org/2000/svg"
   id="svg838"
   version="1.1"
   viewBox="0 0 747 313"
   height="313px"
   width="747px">
  <metadata
     id="metadata842">
    <rdf:RDF>
      <cc:Work
         rdf:about="">
        <dc:format>image/svg+xml</dc:format>
        <dc:type
           rdf:resource="http://purl.org/dc/dcmitype/StillImage" />
        <dc:title>Artboard</dc:title>
      </cc:Work>
    </rdf:RDF>
  </metadata>
  <!-- Generator: Sketch 3.3.3 (12072) - http://www.bohemiancoding.com/sketch -->
  <title
     id="title815">Artboard</title>
  <desc
     id="desc817">Created with Sketch.</desc>
  <defs
     id="defs819" />
  <path
     style="fill:#e46e2e;fill-rule:evenodd;stroke:none;stroke-width:1"
     id="Fill-9"
     d="m 379.25734,231.27361 c -42.58972,0 -79.67695,-15.3113 -98.98444,-37.93323 14.61113,40.55416 53.41073,69.54891 98.98444,69.54891 45.5737,0 84.37396,-28.99475 98.98508,-69.54891 -19.30749,22.62193 -56.39471,37.93323 -98.98508,37.93323" />
  <path
     style="fill:#e46e2e;fill-rule:evenodd;stroke:none;stroke-width:1"
     id="Fill-10"
     d="m 379.25734,84.040504 c 42.59037,0 79.67759,15.311947 98.98508,37.933226 -14.61112,-40.554154 -53.41138,-69.548908 -98.98508,-69.548908 -45.57371,0 -84.37331,28.994754 -98.98444,69.548908 19.30749,-22.621279 56.39472,-37.933226 98.98444,-37.933226" />
  <path
     style="fill:#767474;fill-rule:evenodd;stroke:none;stroke-width:1"
     id="Fill-11"
     d="m 299.45654,285.8646 c -9.13171,0.391 -16.85159,-6.69447 -17.24259,-15.8261 -0.39164,-9.13163 6.69454,-16.85143 15.82626,-17.24307 9.13171,-0.391 16.85159,6.69448 17.24259,15.8261 0.39164,9.13163 -6.6939,16.85207 -15.82626,17.24307 z" />
  <path
     style="fill:#767474;fill-rule:evenodd;stroke:none;stroke-width:1"
     id="Fill-12"
     d="m 286.7574,70.365096 c -5.70721,0.24434 -10.53258,-4.184075 -10.77691,-9.891489 -0.24434,-5.708072 4.18392,-10.532964 9.89113,-10.777304 5.70786,-0.244998 10.53324,4.184076 10.77757,9.891489 0.24433,5.707414 -4.18393,10.532964 -9.89179,10.777304 z" />
  <path
     style="fill:#767474;fill-rule:evenodd;stroke:none;stroke-width:1"
     id="Fill-8"
     d="m 450.98198,58.109949 c -8.86307,0.379485 -16.35595,-6.49699 -16.73544,-15.360137 -0.37948,-8.862396 6.49769,-16.355346 15.36001,-16.734831 8.86307,-0.379485 16.35521,6.49699 16.73469,15.360136 0.38023,8.862396 -6.49694,16.355347 -15.35926,16.734832 z" />
  <path
     d="m 258.91034,171.61968 c 0,9.53178 -0.74498,12.65391 -2.73259,14.95434 -1.73803,1.88959 -4.63575,2.79361 -7.94743,3.04056 l 0.74498,5.66952 c 3.89077,0 9.19006,-1.31485 12.4188,-4.5193 3.55976,-3.61529 4.80164,-8.62776 4.80164,-16.35152 v -36.07211 h -7.2854 v 33.27851"
     id="Fill-1"
     style="fill:#313940;fill-rule:evenodd;stroke:none;stroke-width:1" />
  <path
     d="m 313.30501,167.26502 c 0,4.10771 0.0822,7.72375 0.33102,10.84588 h -6.45823 l -0.41396,-6.49122 h -0.16513 c -1.90467,3.20445 -6.12722,7.39448 -13.24673,7.39448 -6.29235,0 -13.82657,-3.45066 -13.82657,-17.41867 v -23.25432 h 7.28615 v 22.02104 c 0,7.55911 2.31787,12.65465 8.94124,12.65465 4.88458,0 8.2792,-3.36909 9.60403,-6.57428 0.41396,-1.0679 0.66203,-2.38276 0.66203,-3.69762 v -24.40379 h 7.28615 v 28.92385"
     id="Fill-2"
     style="fill:#313940;fill-rule:evenodd;stroke:none;stroke-width:1" />
  <path
     d="m 327.04939,151.3236 c 0,-5.09404 -0.16513,-9.20325 -0.33101,-12.98243 h 6.54042 l 0.33102,6.81974 h 0.16588 c 2.98067,-4.84783 7.69936,-7.72375 14.23978,-7.72375 9.68697,0 16.97237,8.1346 16.97237,20.21376 0,14.29729 -8.77611,21.36324 -18.21425,21.36324 -5.29854,0 -9.93505,-2.30044 -12.33586,-6.24426 h -0.16514 v 21.61019 h -7.20321 z m 7.20321,10.59967 c 0,1.06865 0.16514,2.05498 0.33102,2.95824 1.32407,5.01247 5.7125,8.46313 10.9281,8.46313 7.69936,0 12.17073,-6.24426 12.17073,-15.36519 0,-7.96996 -4.22254,-14.79045 -11.9219,-14.79045 -4.96753,0 -9.60403,3.53372 -11.0118,8.95629 -0.24807,0.90401 -0.49615,1.97191 -0.49615,2.95824 z"
     id="Fill-3"
     style="fill:#313940;fill-rule:evenodd;stroke:none;stroke-width:1" />
  <path
     d="m 377.88431,138.34117 8.77611,23.50053 c 0.91086,2.62971 1.90391,5.75109 2.5667,8.1346 h 0.16513 c 0.74573,-2.38351 1.57366,-5.42332 2.56671,-8.29924 l 7.94818,-23.33589 h 7.69936 l -10.92809,28.34836 c -5.21636,13.63949 -8.77611,20.62461 -13.74363,24.89696 -3.55976,3.12213 -7.12027,4.35467 -8.94124,4.6832 l -1.82173,-6.07962 c 1.82173,-0.57549 4.22255,-1.72646 6.37529,-3.53373 1.98686,-1.56181 4.47062,-4.35541 6.12646,-8.05228 0.33102,-0.73937 0.57909,-1.31485 0.57909,-1.7257 0,-0.41159 -0.16513,-0.98558 -0.4969,-1.88959 l -14.81887,-36.6476 h 7.94743"
     id="Fill-4"
     style="fill:#313940;fill-rule:evenodd;stroke:none;stroke-width:1" />
  <path
     d="m 426.76705,126.9198 v 11.42137 H 437.199 v 5.50563 h -10.43195 v 21.44556 c 0,4.93015 1.40777,7.7245 5.46443,7.7245 1.90391,0 3.31168,-0.24696 4.22254,-0.49317 l 0.33102,5.42257 c -1.40777,0.57548 -3.6427,0.98633 -6.45748,0.98633 -3.39462,0 -6.12721,-1.0679 -7.86599,-3.03981 -2.06905,-2.1373 -2.81478,-5.67027 -2.81478,-10.35421 V 143.8468 h -6.20865 v -5.50563 h 6.20865 v -9.53177 l 7.12026,-1.8896"
     id="Fill-5"
     style="fill:#313940;fill-rule:evenodd;stroke:none;stroke-width:1" />
  <path
     d="m 450.61161,159.54052 c 0.16513,9.77798 6.45823,13.80412 13.74363,13.80412 5.2156,0 8.3614,-0.90327 11.09399,-2.05423 l 1.24188,5.17636 c -2.56671,1.15096 -6.95438,2.46582 -13.32967,2.46582 -12.33587,0 -19.70421,-8.05303 -19.70421,-20.04913 0,-11.99685 7.11951,-21.4463 18.7941,-21.4463 13.08084,0 16.55765,11.42136 16.55765,18.73427 0,1.47949 -0.16513,2.62971 -0.24807,3.36909 z m 21.36005,-5.17636 c 0.0829,-4.60163 -1.90392,-11.75064 -10.10018,-11.75064 -7.36834,0 -10.59783,6.73817 -11.17692,11.75064 z"
     id="Fill-6"
     style="fill:#313940;fill-rule:evenodd;stroke:none;stroke-width:1" />
  <path
     d="m 489.69051,150.74811 c 0,-4.68319 -0.0829,-8.71008 -0.33177,-12.40694 h 6.37529 l 0.24883,7.80607 h 0.33101 c 1.82098,-5.341 6.20941,-8.71008 11.09399,-8.71008 0.82792,0 1.40776,0.0823 2.0698,0.24695 v 6.81975 c -0.74498,-0.16389 -1.49071,-0.24621 -2.48376,-0.24621 -5.13341,0 -8.77611,3.8615 -9.76916,9.28407 -0.16589,0.98633 -0.33177,2.13729 -0.33177,3.36908 v 21.2001 h -7.20246 v -27.36279"
     id="Fill-7"
     style="fill:#313940;fill-rule:evenodd;stroke:none;stroke-width:1" />
</svg>
